<svg width="24" height="24" viewBox="0 0 24 24" fill="none" xmlns="http://www.w3.org/2000/svg">
<path d="M7 7.5C7 6.11929 8.11929 5 9.5 5H12V10H9.5C8.11929 10 7 8.88071 7 7.5Z" stroke="black" stroke-width="1.2" stroke-linecap="round"/>
<path d="M7 12.5C7 11.1193 8.11929 10 9.5 10H12V15H9.5C8.11929 15 7 13.8807 7 12.5Z" stroke="black" stroke-width="1.2" stroke-linecap="round"/>
<path d="M7 17.5C7 16.1193 8.11929 15 9.5 15H12V17.5C12 18.8807 10.8807 20 9.5 20C8.11929 20 7 18.8807 7 17.5Z" stroke="black" stroke-width="1.2" stroke-linecap="round"/>
<path d="M17 7.5C17 6.11929 15.8807 5 14.5 5H12V10H14.5C15.8807 10 17 8.88071 17 7.5Z" stroke="black" stroke-width="1.2" stroke-linecap="round"/>
<path d="M17 12.5C17 11.1193 15.8807 10 14.5 10C13.1193 10 12 11.1193 12 12.5C12 13.8807 13.1193 15 14.5 15C15.8807 15 17 13.8807 17 12.5Z" stroke="black" stroke-width="1.2" stroke-linecap="round"/>
</svg>
