<svg width="24" height="24" viewBox="0 0 24 24" fill="none" xmlns="http://www.w3.org/2000/svg">
<path d="M10.252 5.14661C11.014 3.77525 12.987 3.77528 13.749 5.14661L20.3496 17.0284C21.0902 18.3615 20.1265 20.0001 18.6016 20.0001H5.39941C3.87454 20 2.9108 18.3615 3.65137 17.0284L10.252 5.14661ZM12.001 15.0001C11.4487 15.0001 11.001 15.4478 11.001 16.0001C11.001 16.5524 11.4487 17.0001 12.001 17.0001C12.553 16.9999 13.0009 16.5522 13.001 16.0001C13.001 15.448 12.5531 15.0003 12.001 15.0001ZM12.001 8.40051C11.6696 8.40051 11.4014 8.66875 11.4014 9.00012V13.0001C11.4014 13.3315 11.6696 13.5997 12.001 13.5997C12.3321 13.5995 12.6005 13.3313 12.6006 13.0001V9.00012C12.6006 8.66889 12.3322 8.40074 12.001 8.40051Z" fill="#F24822"/>
</svg>
