<svg width="24" height="24" viewBox="0 0 24 24" fill="none" xmlns="http://www.w3.org/2000/svg">
<path d="M12.9101 18.4309L12.524 11.9982C12.4993 11.5869 12.9548 11.324 13.2986 11.551L18.6764 15.1017C19.0774 15.3665 18.9105 15.9893 18.4309 16.0181L15.7137 16.1812C15.5566 16.1906 15.4131 16.2734 15.3264 16.4048L13.8265 18.6764C13.5617 19.0774 12.9389 18.9105 12.9101 18.4309Z" stroke="black" stroke-width="1.2" stroke-linecap="round" stroke-linejoin="round"/>
<path d="M10 18H7C5.89543 18 5 17.1046 5 16V7C5 5.89543 5.89543 5 7 5H16C17.1046 5 18 5.89543 18 7V10" stroke="black" stroke-width="1.2" stroke-linecap="round"/>
</svg>
