<svg width="24" height="24" viewBox="0 0 24 24" fill="none" xmlns="http://www.w3.org/2000/svg">
<path d="M12 4C16.4183 4 20 7.58172 20 12C20 16.4183 16.4183 20 12 20C7.58172 20 4 16.4183 4 12C4 7.58172 7.58172 4 12 4ZM16.4375 9.58984C16.2109 9.3481 15.8316 9.33586 15.5898 9.5625L10.666 14.1768L8.41016 12.0625C8.16841 11.8359 7.78914 11.8481 7.5625 12.0898C7.33586 12.3316 7.3481 12.7109 7.58984 12.9375L10.2559 15.4375C10.4867 15.6539 10.8464 15.6539 11.0771 15.4375L16.4102 10.4375C16.6519 10.2109 16.6641 9.83159 16.4375 9.58984Z" fill="#12B981"/>
</svg>
